<svg width="64" height="64" viewBox="0 0 64 64" xmlns="http://www.w3.org/2000/svg">
  <rect width="64" height="64" rx="14" fill="#16a34a"/>
  <rect x="10" y="10" width="10" height="10" rx="2.5" fill="white"/>
  <rect x="24" y="10" width="10" height="10" rx="2.5" fill="white"/>
  <rect x="38" y="10" width="10" height="10" rx="2.5" fill="white" opacity="0.4"/>
  <rect x="52" y="10" width="10" height="10" rx="2.5" fill="white"/>
  <rect x="10" y="24" width="10" height="10" rx="2.5" fill="white"/>
  <rect x="24" y="24" width="10" height="10" rx="2.5" fill="#fbbf24"/>
  <rect x="38" y="24" width="10" height="10" rx="2.5" fill="white"/>
  <rect x="52" y="24" width="10" height="10" rx="2.5" fill="white"/>
  <rect x="10" y="38" width="10" height="10" rx="2.5" fill="white"/>
  <rect x="24" y="38" width="10" height="10" rx="2.5" fill="white"/>
  <rect x="38" y="38" width="10" height="10" rx="2.5" fill="#ef4444"/>
  <rect x="52" y="38" width="10" height="10" rx="2.5" fill="white"/>
  <rect x="10" y="52" width="10" height="10" rx="2.5" fill="white"/>
  <rect x="24" y="52" width="10" height="10" rx="2.5" fill="white"/>
  <rect x="38" y="52" width="10" height="10" rx="2.5" fill="white"/>
  <rect x="52" y="52" width="10" height="10" rx="2.5" fill="white"/>
</svg>